<svg width="189" height="32" viewBox="0 0 189 32" fill="none" xmlns="http://www.w3.org/2000/svg">
<rect width="31.9952" height="31.9952" fill="#1A278E"/>
<path d="M21.203 17.8206C21.7623 17.8206 22.2618 17.8993 22.6854 18.0803C23.0569 18.2389 23.405 18.421 23.7294 18.6272L24.619 19.1819C24.8538 19.3255 25.1458 19.4322 25.5028 19.4875L25.996 19.5637V22.1741L25.3925 22.1096C24.968 22.0644 24.5741 21.9603 24.2186 21.7874L24.0692 21.7083C23.9027 21.6152 23.7376 21.522 23.5751 21.427L23.0936 21.1389C22.7967 20.9574 22.4919 20.7912 22.1805 20.6409C21.9324 20.5212 21.611 20.4505 21.203 20.4504C20.8155 20.4505 20.4858 20.5253 20.2069 20.6624C19.954 20.7867 19.702 20.9221 19.452 21.0686L19.202 21.22C18.9305 21.3878 18.6478 21.5457 18.3544 21.6946L18.0565 21.8411C17.5954 22.0597 17.0719 22.1584 16.4979 22.1584C15.9234 22.1584 15.3981 22.0594 14.9354 21.8411C14.6332 21.6984 14.342 21.5457 14.0624 21.384L13.787 21.22C13.537 21.0654 13.2873 20.9214 13.0389 20.7893L12.7909 20.6614C12.524 20.5271 12.1948 20.4505 11.7928 20.4504C11.4034 20.4504 11.0827 20.5201 10.8221 20.6428C10.5835 20.7553 10.3506 20.8764 10.1249 21.0061L9.90125 21.1389C9.74281 21.2357 9.58223 21.3321 9.4198 21.427L8.92566 21.7083C8.53192 21.9283 8.08829 22.0579 7.60339 22.1096L6.9989 22.1741V19.5627L7.49304 19.4866C7.8539 19.4311 8.14537 19.3254 8.37683 19.1829L9.2655 18.6272L9.51453 18.4768C9.76932 18.3307 10.0401 18.1973 10.3251 18.0784L10.4882 18.0159C10.8767 17.8808 11.3148 17.8206 11.7928 17.8206C12.36 17.8206 12.8743 17.9134 13.3221 18.1213L13.6112 18.261C13.8982 18.4046 14.1788 18.5608 14.452 18.7288L14.705 18.8811C14.9588 19.0309 15.2145 19.1728 15.4716 19.3059C15.7468 19.4484 16.0856 19.5286 16.4979 19.5286C16.91 19.5285 17.2482 19.4483 17.5233 19.3059C17.8659 19.1285 18.2059 18.9359 18.5428 18.7288L18.8202 18.5637C19.1005 18.4034 19.3903 18.255 19.6884 18.1194L19.8602 18.0481C20.2678 17.8924 20.718 17.8206 21.203 17.8206ZM16.8055 21.4114C16.8189 21.4104 16.8323 21.4096 16.8456 21.4084C16.8323 21.4096 16.8189 21.4104 16.8055 21.4114ZM15.9686 21.3889C15.9774 21.3901 15.9862 21.3907 15.995 21.3918C15.9862 21.3907 15.9774 21.3901 15.9686 21.3889ZM7.5575 21.3772C7.65814 21.3665 7.75567 21.3501 7.85046 21.3323C7.75571 21.3502 7.65812 21.3665 7.5575 21.3772ZM17.1239 21.3743C17.1435 21.371 17.1631 21.3681 17.1825 21.3645C17.1631 21.368 17.1435 21.371 17.1239 21.3743ZM17.2948 21.3411C17.2984 21.3403 17.302 21.3399 17.3055 21.3391C17.302 21.3399 17.2984 21.3403 17.2948 21.3411ZM15.6239 21.3235C15.6472 21.3292 15.6706 21.3348 15.6942 21.3401C15.6706 21.3348 15.6472 21.3292 15.6239 21.3235ZM7.95789 21.3088C8.02311 21.2943 8.08698 21.2791 8.14929 21.261C8.08699 21.2791 8.02311 21.2943 7.95789 21.3088ZM15.4823 21.2854C15.5097 21.2937 15.5374 21.3013 15.5653 21.3088C15.5374 21.3013 15.5097 21.2937 15.4823 21.2854ZM17.4384 21.3059C17.4475 21.3034 17.4566 21.3007 17.4657 21.2981C17.4566 21.3007 17.4475 21.3034 17.4384 21.3059ZM15.3593 21.2444C15.3716 21.2488 15.3838 21.2538 15.3964 21.2581C15.3838 21.2538 15.3716 21.2488 15.3593 21.2444ZM8.33582 21.2004C8.34766 21.1961 8.35925 21.1912 8.37097 21.1868C8.35925 21.1912 8.34766 21.1961 8.33582 21.2004ZM17.8671 21.1497C17.8525 21.1566 17.8369 21.1616 17.8221 21.1682L17.868 21.1497C17.8846 21.1418 17.9004 21.1322 17.9169 21.1243C17.9003 21.1322 17.8838 21.1417 17.8671 21.1497ZM18.2577 20.9534C18.2779 20.9429 18.2982 20.9327 18.3182 20.9221C18.2982 20.9327 18.2779 20.9429 18.2577 20.9534ZM15.6268 20.137C15.7614 20.1798 15.9026 20.2117 16.0507 20.2327C15.9026 20.2117 15.7614 20.1798 15.6268 20.137ZM15.2665 19.9895C15.3724 20.0444 15.4844 20.0898 15.6005 20.1282C15.5328 20.1058 15.4664 20.0819 15.4022 20.054L15.2675 19.9895C15.2436 19.9771 15.22 19.9639 15.1962 19.9514C15.2198 19.9638 15.2428 19.9773 15.2665 19.9895ZM11.3202 19.7483C11.2706 19.7556 11.2217 19.7639 11.1737 19.7737C11.27 19.7541 11.3697 19.7396 11.4725 19.7297L11.3202 19.7483ZM19.3124 19.0891C19.2214 19.1375 19.1318 19.1876 19.0428 19.2385C19.2207 19.1367 19.4027 19.0401 19.5887 18.9485L19.3124 19.0891ZM13.8524 19.1829C13.8287 19.1695 13.805 19.156 13.7811 19.1428C13.805 19.156 13.8286 19.1695 13.8524 19.1829ZM9.8866 19.0686C9.8678 19.0787 9.84953 19.0896 9.83093 19.0999C9.84952 19.0896 9.86781 19.0787 9.8866 19.0686ZM23.1659 19.0999C23.1464 19.089 23.1269 19.0783 23.1073 19.0676C23.1269 19.0783 23.1464 19.089 23.1659 19.0999ZM13.1366 18.8147C13.091 18.7935 13.0439 18.7737 12.996 18.7551C13.0439 18.7737 13.091 18.7935 13.1366 18.8147ZM10.9276 18.6428C10.7725 18.6778 10.628 18.7235 10.494 18.7795C10.6728 18.7048 10.8705 18.6489 11.0868 18.6116L10.9276 18.6428ZM12.9677 18.7454C12.9359 18.7335 12.9037 18.7219 12.871 18.7112C12.9037 18.7219 12.9359 18.7335 12.9677 18.7454ZM22.2909 18.6995C22.2802 18.6962 22.2695 18.6929 22.2587 18.6897C22.2695 18.6929 22.2802 18.6961 22.2909 18.6995ZM12.6171 18.6409C12.6077 18.6388 12.5982 18.637 12.5887 18.635C12.5982 18.6371 12.6077 18.6387 12.6171 18.6409ZM22.0253 18.6311C22.0094 18.6279 21.9935 18.6244 21.9774 18.6213C21.9935 18.6244 22.0094 18.6279 22.0253 18.6311ZM12.3192 18.5881C12.3062 18.5865 12.2932 18.5848 12.2802 18.5833C12.2932 18.5848 12.3062 18.5864 12.3192 18.5881ZM21.7225 18.5833C21.7112 18.582 21.6998 18.5815 21.6884 18.5803C21.6998 18.5815 21.7112 18.582 21.7225 18.5833ZM21.5028 18.5667C21.4674 18.5645 21.4317 18.5602 21.3954 18.5588L21.203 18.5559C21.3064 18.5559 21.4062 18.5608 21.5028 18.5667ZM21.203 8.99829C21.7622 8.99833 22.2618 9.07709 22.6854 9.25806V9.25903C23.0568 9.41752 23.4051 9.59886 23.7294 9.80493L24.619 10.3596C24.8538 10.5032 25.1458 10.61 25.5028 10.6653L25.996 10.7415V13.3518L25.3925 13.2874C24.968 13.2421 24.5741 13.138 24.2186 12.9651L24.0692 12.887C23.9027 12.7939 23.7376 12.6997 23.5751 12.6047L23.0936 12.3167C22.7967 12.1352 22.4919 11.9689 22.1805 11.8186C21.9324 11.699 21.611 11.6282 21.203 11.6282C20.8638 11.6282 20.5685 11.6859 20.3134 11.7922L20.2069 11.8401C19.954 11.9644 19.702 12.0999 19.452 12.2463L19.202 12.3977C18.9304 12.5656 18.6479 12.7244 18.3544 12.8733L18.0565 13.0188C17.5954 13.2374 17.072 13.3361 16.4979 13.3362C15.9234 13.3362 15.3981 13.2372 14.9354 13.0188C14.6332 12.8761 14.342 12.7234 14.0624 12.5618L13.787 12.3977C13.537 12.2432 13.2873 12.0991 13.0389 11.967L12.7909 11.8391C12.524 11.7049 12.1948 11.6282 11.7928 11.6282C11.4034 11.6282 11.0827 11.6979 10.8221 11.8206C10.5835 11.933 10.3506 12.0542 10.1249 12.1838L9.90125 12.3167C9.7428 12.4134 9.58223 12.5098 9.4198 12.6047L8.92566 12.887C8.53202 13.1069 8.08813 13.2356 7.60339 13.2874L6.9989 13.3518V10.7405L7.49304 10.6643C7.85389 10.6088 8.14537 10.5031 8.37683 10.3606L9.2655 9.80493L9.51453 9.65454C9.76928 9.50845 10.0402 9.376 10.3251 9.25708C10.7529 9.07838 11.2466 8.99829 11.7928 8.99829C12.36 8.99835 12.8743 9.09213 13.3221 9.30005L13.6112 9.43872C13.8982 9.58229 14.1788 9.73852 14.452 9.90649L14.705 10.0588C14.9588 10.2087 15.2145 10.3505 15.4716 10.4836C15.7468 10.6261 16.0856 10.7063 16.4979 10.7063C16.91 10.7062 17.2482 10.6261 17.5233 10.4836C17.8659 10.3062 18.2059 10.1136 18.5428 9.90649L18.8202 9.74146C19.1005 9.58109 19.3903 9.43274 19.6884 9.29712L19.8602 9.22583C20.2678 9.07014 20.718 8.9983 21.203 8.99829ZM16.8055 12.5891C16.8189 12.5881 16.8323 12.5873 16.8456 12.5862C16.8323 12.5873 16.8189 12.5881 16.8055 12.5891ZM15.9686 12.5667C15.9774 12.5678 15.9862 12.5685 15.995 12.5696C15.9862 12.5685 15.9774 12.5678 15.9686 12.5667ZM7.5575 12.5549C7.65815 12.5442 7.75567 12.5279 7.85046 12.51C7.7557 12.5279 7.65812 12.5442 7.5575 12.5549ZM17.1239 12.552C17.1435 12.5488 17.1631 12.5458 17.1825 12.5422C17.1631 12.5458 17.1435 12.5488 17.1239 12.552ZM17.2948 12.5188C17.2984 12.518 17.302 12.5176 17.3055 12.5168C17.302 12.5176 17.2984 12.518 17.2948 12.5188ZM15.6239 12.5012C15.6472 12.507 15.6706 12.5126 15.6942 12.5178C15.6706 12.5126 15.6472 12.507 15.6239 12.5012ZM15.4823 12.4631C15.5097 12.4714 15.5374 12.4791 15.5653 12.4866C15.5374 12.479 15.5097 12.4714 15.4823 12.4631ZM17.4384 12.4836C17.4475 12.4811 17.4566 12.4784 17.4657 12.4758C17.4566 12.4784 17.4475 12.4811 17.4384 12.4836ZM7.97644 12.4827C8.03112 12.4702 8.08496 12.4577 8.13757 12.4426C8.08497 12.4577 8.03111 12.4701 7.97644 12.4827ZM15.3593 12.4221C15.3716 12.4265 15.3838 12.4316 15.3964 12.4358C15.3838 12.4315 15.3716 12.4265 15.3593 12.4221ZM8.33582 12.3782C8.34766 12.3738 8.35925 12.369 8.37097 12.3645C8.35925 12.369 8.34766 12.3738 8.33582 12.3782ZM17.8671 12.3274C17.8525 12.3343 17.8369 12.3393 17.8221 12.3459L17.868 12.3274C17.8846 12.3195 17.9004 12.3099 17.9169 12.302C17.9003 12.31 17.8838 12.3195 17.8671 12.3274ZM18.2577 12.1311C18.2779 12.1206 18.2982 12.1105 18.3182 12.0999C18.2982 12.1104 18.2779 12.1206 18.2577 12.1311ZM16.1014 11.4172C16.2287 11.433 16.3609 11.4426 16.4979 11.4426C16.5914 11.4426 16.6825 11.4373 16.7714 11.4299C16.6825 11.4373 16.5914 11.4416 16.4979 11.4417L16.3251 11.4377C16.2489 11.4339 16.1744 11.4263 16.1014 11.4172ZM15.6268 11.3147C15.7614 11.3575 15.9026 11.3894 16.0507 11.4104C15.9026 11.3894 15.7614 11.3575 15.6268 11.3147ZM15.2665 11.1672C15.3724 11.2221 15.4844 11.2675 15.6005 11.3059C15.5328 11.2835 15.4664 11.2597 15.4022 11.2317L15.2675 11.1672C15.2436 11.1549 15.22 11.1417 15.1962 11.1292C15.2198 11.1415 15.2428 11.155 15.2665 11.1672ZM11.3202 10.926C11.1705 10.9481 11.0283 10.9815 10.8934 11.0256C11.0733 10.9666 11.2663 10.9272 11.4725 10.9075L11.3202 10.926ZM19.3124 10.2668C19.2214 10.3152 19.1318 10.3654 19.0428 10.4163C19.2207 10.3145 19.4027 10.2178 19.5887 10.1262L19.3124 10.2668ZM13.8524 10.3606C13.8287 10.3473 13.805 10.3337 13.7811 10.3206C13.805 10.3337 13.8286 10.3473 13.8524 10.3606ZM9.8866 10.2463C9.8678 10.2564 9.84953 10.2674 9.83093 10.2776C9.84952 10.2673 9.86781 10.2564 9.8866 10.2463ZM23.1659 10.2776C23.1464 10.2668 23.1269 10.256 23.1073 10.2454C23.1269 10.256 23.1464 10.2668 23.1659 10.2776ZM13.1366 9.99243C13.091 9.97124 13.0439 9.95144 12.996 9.93286C13.0439 9.95146 13.091 9.97124 13.1366 9.99243ZM10.9276 9.82056C10.7725 9.85552 10.628 9.90128 10.494 9.95728C10.6728 9.88256 10.8705 9.82667 11.0868 9.78931L10.9276 9.82056ZM12.9677 9.9231C12.9359 9.91122 12.9037 9.89967 12.871 9.88892C12.9037 9.89968 12.9359 9.91121 12.9677 9.9231ZM20.3251 9.83423C20.2716 9.84771 20.2193 9.86297 20.1678 9.87915L20.3251 9.83521C20.3788 9.82164 20.4334 9.80894 20.4891 9.7981L20.3251 9.83423ZM22.2909 9.8772C22.2802 9.87389 22.2695 9.87063 22.2587 9.86743C22.2695 9.87063 22.2802 9.87388 22.2909 9.8772ZM12.6278 9.82153C12.6122 9.81796 12.5967 9.81415 12.5809 9.81079C12.5967 9.81416 12.6123 9.81795 12.6278 9.82153ZM22.0253 9.80884C22.0094 9.8056 21.9935 9.8021 21.9774 9.79907C21.9935 9.80211 22.0094 9.80559 22.0253 9.80884ZM12.3192 9.76587C12.3062 9.76419 12.2932 9.76254 12.2802 9.76099C12.2932 9.76254 12.3062 9.76418 12.3192 9.76587ZM21.7225 9.76099C21.7112 9.7597 21.6998 9.75925 21.6884 9.75806C21.6998 9.75925 21.7112 9.7597 21.7225 9.76099ZM21.5028 9.74438C21.4674 9.74225 21.4317 9.73793 21.3954 9.73657L21.203 9.73364C21.3064 9.73365 21.4062 9.73855 21.5028 9.74438Z" fill="white"/>
<path d="M188.971 18.6536C188.971 20.1736 187.739 21.7096 185.371 21.7096C183.131 21.7096 181.659 20.4296 181.595 18.7176H182.779C182.875 19.6456 183.563 20.7656 185.371 20.7656C186.923 20.7656 187.835 19.8536 187.835 18.7016C187.835 15.4056 181.691 17.4856 181.691 13.2776C181.691 11.5496 183.115 10.2856 185.275 10.2856C187.403 10.2856 188.683 11.4696 188.875 13.0056H187.659C187.531 12.2216 186.779 11.2616 185.227 11.2456C183.915 11.2296 182.827 11.9496 182.827 13.2456C182.827 16.4776 188.971 14.4936 188.971 18.6536Z" fill="#1A278E"/>
<path d="M176.205 13.6616C176.205 12.2536 175.437 11.3576 173.549 11.3576H171.309V16.0136H173.565C175.389 16.0136 176.205 15.0216 176.205 13.6616ZM170.189 10.4136H173.549C176.141 10.4136 177.357 11.8216 177.357 13.6616C177.357 15.1976 176.493 16.4936 174.605 16.8456L177.485 21.5976H176.141L173.373 16.9256H171.309V21.5976H170.189V10.4136Z" fill="#1A278E"/>
<path d="M165.582 10.3976V11.3256H160.862V15.5016H165.102V16.4296H160.862V20.6696H165.582V21.5976H159.742V10.3976H165.582Z" fill="#1A278E"/>
<path d="M148.229 11.3416V10.4136H155.573V11.3416H152.469V21.5976H151.349V11.3416H148.229Z" fill="#1A278E"/>
<path d="M144.465 18.6536C144.465 20.1736 143.233 21.7096 140.865 21.7096C138.625 21.7096 137.153 20.4296 137.089 18.7176H138.273C138.369 19.6456 139.057 20.7656 140.865 20.7656C142.417 20.7656 143.329 19.8536 143.329 18.7016C143.329 15.4056 137.185 17.4856 137.185 13.2776C137.185 11.5496 138.609 10.2856 140.769 10.2856C142.897 10.2856 144.177 11.4696 144.369 13.0056H143.153C143.025 12.2216 142.273 11.2616 140.721 11.2456C139.409 11.2296 138.321 11.9496 138.321 13.2456C138.321 16.4776 144.465 14.4936 144.465 18.6536Z" fill="#1A278E"/>
<path d="M132.092 21.5976L131.116 18.9416H126.028L125.052 21.5976H123.868L127.948 10.5576H129.212L133.276 21.5976H132.092ZM130.78 18.0136L128.572 11.9656L126.364 18.0136H130.78Z" fill="#1A278E"/>
<path d="M108.767 21.5976V10.5576H109.951L114.223 20.1256L118.495 10.5576H119.695V21.5976H118.575V12.7816L114.639 21.5976H113.823L109.887 12.8136V21.5976H108.767Z" fill="#1A278E"/>
<path d="M101.861 13.9016C101.861 12.9096 101.301 12.2856 100.053 12.2856H98.181V15.5656H100.053C101.301 15.5656 101.861 14.9096 101.861 13.9016ZM95.941 10.4296H100.133C102.821 10.4296 104.165 11.9816 104.165 13.8536C104.165 15.2136 103.413 16.5896 101.621 17.0696L104.293 21.5976H101.701L99.237 17.2456H98.181V21.5976H95.941V10.4296Z" fill="#1A278E"/>
<path d="M91.5054 10.4136V12.2376H87.2654V15.0376H91.0254V16.8136H87.2654V19.7736H91.5054V21.5976H85.0254V10.4136H91.5054Z" fill="#1A278E"/>
<path d="M72.799 12.2376V10.4296H80.9909V12.2376H78.0149V21.5976H75.7749V12.2376H72.799Z" fill="#1A278E"/>
<path d="M67.1219 21.5976L66.3859 19.4696H61.9379L61.2019 21.5976H58.8499L62.8659 10.4136H65.4739L69.4899 21.5976H67.1219ZM65.7779 17.6776L64.1619 13.0056L62.5459 17.6776H65.7779Z" fill="#1A278E"/>
<path d="M43.0032 21.6136L39.9952 10.4296H42.3952L44.3632 19.1016L46.6352 10.4296H49.1312L51.2752 19.0536L53.2592 10.4296H55.6752L52.5552 21.5976H49.9152L47.8192 13.6456L45.6272 21.5976L43.0032 21.6136Z" fill="#1A278E"/>
</svg>
