<svg width="182" height="14" viewBox="0 0 182 14" fill="none" xmlns="http://www.w3.org/2000/svg">
<path d="M14.2031 8.82031C14.7623 8.82035 15.262 8.89913 15.6855 9.08008C16.057 9.23859 16.4052 9.42083 16.7295 9.62695L17.6191 10.1816C17.8539 10.3252 18.146 10.432 18.5029 10.4873L18.9961 10.5635V13.1738L18.3926 13.1094C17.9681 13.0641 17.5743 12.96 17.2188 12.7871L17.0693 12.708C16.9028 12.615 16.7377 12.5217 16.5752 12.4268L16.0938 12.1387C15.7968 11.9572 15.492 11.7909 15.1807 11.6406C14.9325 11.521 14.611 11.4502 14.2031 11.4502C13.8157 11.4502 13.4859 11.5251 13.207 11.6621C12.9542 11.7864 12.7021 11.9219 12.4521 12.0684L12.2021 12.2197C11.9307 12.3875 11.6479 12.5455 11.3545 12.6943L11.0566 12.8408C10.5956 13.0594 10.0721 13.1582 9.49805 13.1582C8.92356 13.1582 8.3982 13.0592 7.93555 12.8408C7.63335 12.6982 7.34207 12.5454 7.0625 12.3838L6.78711 12.2197C6.53713 12.0652 6.28741 11.9211 6.03906 11.7891L5.79102 11.6611C5.5241 11.5269 5.19484 11.4503 4.79297 11.4502C4.40358 11.4502 4.08278 11.5199 3.82227 11.6426C3.58366 11.7551 3.35074 11.8762 3.125 12.0059L2.90137 12.1387C2.74297 12.2354 2.58231 12.3319 2.41992 12.4268L1.92578 12.708C1.53205 12.9281 1.0884 13.0576 0.603516 13.1094L-0.000976562 13.1738V10.5625L0.493164 10.4863C0.854002 10.4309 1.1455 10.3251 1.37695 10.1826L2.26562 9.62695L2.51465 9.47656C2.76942 9.33047 3.0403 9.19704 3.3252 9.07812L3.48828 9.01562C3.87678 8.88056 4.31493 8.82031 4.79297 8.82031C5.36012 8.82037 5.87449 8.9132 6.32227 9.12109L6.61133 9.26074C6.89828 9.40429 7.17897 9.56057 7.45215 9.72852L7.70508 9.88086C7.9589 10.0307 8.21469 10.1726 8.47168 10.3057C8.74694 10.4482 9.08576 10.5283 9.49805 10.5283C9.9101 10.5283 10.2483 10.4481 10.5234 10.3057C10.8659 10.1283 11.2061 9.93562 11.543 9.72852L11.8203 9.56348C12.1006 9.40313 12.3904 9.25475 12.6885 9.11914L12.8604 9.04785C13.2679 8.89218 13.7181 8.82032 14.2031 8.82031ZM133.77 1.28516C135.897 1.28531 137.177 2.46996 137.369 4.00586H136.153C136.025 3.22186 135.273 2.26209 133.721 2.24609C132.409 2.23025 131.321 2.95023 131.321 4.24609C131.322 7.47734 137.465 5.49391 137.465 9.65332C137.465 11.1733 136.233 12.7099 133.865 12.71C131.625 12.71 130.153 11.4297 130.089 9.71777H131.273C131.37 10.6457 132.057 11.7656 133.865 11.7656C135.417 11.7656 136.329 10.8531 136.329 9.70117C136.329 6.4058 130.186 8.48516 130.186 4.27734C130.186 2.54948 131.61 1.28516 133.77 1.28516ZM178.275 1.28516C180.403 1.28517 181.683 2.46987 181.875 4.00586H180.659C180.531 3.22189 179.779 2.26217 178.228 2.24609C176.916 2.23009 175.827 2.95009 175.827 4.24609C175.828 7.47734 181.971 5.49391 181.972 9.65332C181.972 11.1733 180.739 12.71 178.371 12.71C176.131 12.7099 174.66 11.4296 174.596 9.71777H175.779C175.875 10.6457 176.563 11.7655 178.371 11.7656C179.923 11.7656 180.835 10.8532 180.835 9.70117C180.834 6.4058 174.691 8.48516 174.691 4.27734C174.692 2.54948 176.116 1.28516 178.275 1.28516ZM37.3633 10.1016L39.6348 1.42969H42.1309L44.2754 10.0537L46.2588 1.42969H48.6748L45.5547 12.5977H42.915L40.8193 4.64551L38.627 12.5977L36.0029 12.6133L32.9951 1.42969H35.3955L37.3633 10.1016ZM62.4893 12.5977H60.1221L59.3857 10.4697H54.9375L54.2021 12.5977H51.8496L55.8662 1.41406H58.4736L62.4893 12.5977ZM73.9912 3.2373H71.0146V12.5977H68.7744V3.2373H65.7988V1.42969H73.9912V3.2373ZM84.5049 3.2373H80.2656V6.03809H84.0254V7.81348H80.2656V10.7734H84.5049V12.5977H78.0254V1.41406H84.5049V3.2373ZM93.1328 1.42969C95.8208 1.42969 97.165 2.98156 97.165 4.85352C97.165 6.21344 96.4129 7.58927 94.6211 8.06934L97.293 12.5977H94.7012L92.2373 8.24609H91.1807V12.5977H88.9404V1.42969H93.1328ZM107.223 11.126L111.495 1.55762H112.695V12.5977H111.575V3.78125L107.639 12.5977H106.823L102.887 3.81348V12.5977H101.767V1.55762H102.951L107.223 11.126ZM126.275 12.5977H125.092L124.115 9.94141H119.027L118.052 12.5977H116.867L120.947 1.55762H122.212L126.275 12.5977ZM148.573 2.3418H145.47V12.5977H144.35V2.3418H141.229V1.41406H148.573V2.3418ZM158.582 2.3252H153.862V6.50195H158.102V7.42969H153.862V11.6699H158.582V12.5977H152.742V1.39746H158.582V2.3252ZM166.549 1.41406C169.141 1.4141 170.356 2.82139 170.356 4.66113C170.356 6.19713 169.492 7.4937 167.604 7.8457L170.484 12.5977H169.141L166.373 7.92578H164.309V12.5977H163.188V1.41406H166.549ZM10.8672 12.1494C10.8526 12.1563 10.837 12.1613 10.8223 12.168L10.8682 12.1494C10.8847 12.1416 10.9005 12.1319 10.917 12.124C10.9004 12.132 10.8838 12.1415 10.8672 12.1494ZM8.2666 10.9893C8.27987 10.9961 8.29416 11.0012 8.30762 11.0078L8.26758 10.9893C8.24376 10.9769 8.22009 10.9637 8.19629 10.9512C8.21988 10.9635 8.24299 10.977 8.2666 10.9893ZM12.3125 10.0889C12.2216 10.1372 12.1318 10.1874 12.043 10.2383C12.2208 10.1365 12.4029 10.0398 12.5889 9.94824L12.3125 10.0889ZM3.92773 9.64258C3.90924 9.64675 3.89124 9.65275 3.87305 9.65723C3.94227 9.64023 4.01338 9.62403 4.08691 9.61133L3.92773 9.64258ZM14.5029 9.56641C14.4675 9.56427 14.4318 9.55995 14.3955 9.55859L14.2031 9.55566C14.3065 9.55567 14.4063 9.56057 14.5029 9.56641ZM119.363 9.01367H123.779L121.571 2.96582L119.363 9.01367ZM55.5459 8.67773H58.7773L57.1621 4.00586L55.5459 8.67773ZM164.309 7.01367H166.564C168.388 7.01367 169.205 6.02113 169.205 4.66113C169.205 3.25343 168.437 2.35745 166.549 2.35742H164.309V7.01367ZM91.1807 6.56543H93.0527C94.3007 6.56543 94.8613 5.90937 94.8613 4.90137C94.8612 3.90951 94.3006 3.28516 93.0527 3.28516H91.1807V6.56543ZM14.2031 -0.00195312C14.7623 -0.00191379 15.262 0.0768682 15.6855 0.257812V0.258789C16.0568 0.417254 16.4053 0.598648 16.7295 0.804688L17.6191 1.35938C17.8539 1.50298 18.146 1.60971 18.5029 1.66504L18.9961 1.74121V4.35156L18.3926 4.28711C17.9681 4.24186 17.5743 4.13776 17.2188 3.96484L17.0693 3.88672C16.9028 3.79368 16.7377 3.69943 16.5752 3.60449L16.0938 3.31641C15.7968 3.13493 15.492 2.96863 15.1807 2.81836C14.9326 2.69874 14.611 2.62798 14.2031 2.62793C13.864 2.62794 13.5686 2.68566 13.3135 2.79199L13.207 2.83984C12.9542 2.96412 12.7021 3.09967 12.4521 3.24609L12.2021 3.39746C11.9306 3.56532 11.648 3.72419 11.3545 3.87305L11.0566 4.01855C10.5956 4.23716 10.0721 4.33589 9.49805 4.33594C8.92356 4.33594 8.3982 4.23693 7.93555 4.01855C7.63336 3.8759 7.34206 3.72317 7.0625 3.56152L6.78711 3.39746C6.53713 3.24293 6.28741 3.09885 6.03906 2.9668L5.79102 2.83887C5.5241 2.70465 5.19484 2.628 4.79297 2.62793C4.40359 2.62793 4.08278 2.69765 3.82227 2.82031C3.58366 2.93278 3.35073 3.05393 3.125 3.18359L2.90137 3.31641C2.74296 3.41318 2.58232 3.50962 2.41992 3.60449L1.92578 3.88672C1.53215 4.10667 1.08824 4.23539 0.603516 4.28711L-0.000976562 4.35156V1.74023L0.493164 1.66406C0.853998 1.60859 1.1455 1.50285 1.37695 1.36035L2.26562 0.804688L2.51465 0.654297C2.76937 0.508229 3.04036 0.375735 3.3252 0.256836C3.75297 0.0781605 4.24679 -0.00195312 4.79297 -0.00195312C5.36012 -0.0018937 5.87449 0.0919134 6.32227 0.299805L6.61133 0.438477C6.89828 0.582024 7.17897 0.738303 7.45215 0.90625L7.70508 1.05859C7.95889 1.20842 8.2147 1.35031 8.47168 1.4834C8.74694 1.6259 9.08576 1.70605 9.49805 1.70605C9.91011 1.706 10.2483 1.62583 10.5234 1.4834C10.8659 1.30602 11.2061 1.11336 11.543 0.90625L11.8203 0.741211C12.1006 0.580871 12.3904 0.432483 12.6885 0.296875L12.8604 0.225586C13.2679 0.0699138 13.7181 -0.00194458 14.2031 -0.00195312ZM10.8672 3.32715C10.8526 3.33406 10.837 3.33906 10.8223 3.3457L10.8682 3.32715C10.8847 3.31929 10.9005 3.30967 10.917 3.30176C10.9004 3.30972 10.8839 3.31924 10.8672 3.32715ZM9.49805 2.44141L9.41016 2.43848C9.43926 2.43934 9.4685 2.44238 9.49805 2.44238C9.5915 2.44237 9.68258 2.43703 9.77148 2.42969C9.68258 2.43703 9.59149 2.44139 9.49805 2.44141ZM9.10156 2.41699C9.16883 2.42532 9.23757 2.43116 9.30762 2.43555C9.23756 2.43147 9.1689 2.42533 9.10156 2.41699ZM8.2666 2.16699C8.27987 2.17387 8.29416 2.17896 8.30762 2.18555L8.26758 2.16699C8.24375 2.15465 8.2201 2.14139 8.19629 2.12891C8.21988 2.14127 8.24299 2.15476 8.2666 2.16699ZM12.3125 1.2666C12.2216 1.31495 12.1318 1.36514 12.043 1.41602C12.2208 1.31426 12.4029 1.21755 12.5889 1.12598L12.3125 1.2666ZM13.3252 0.833984C13.2718 0.847463 13.2194 0.862732 13.168 0.878906L13.3252 0.834961C13.3789 0.821397 13.4335 0.808694 13.4893 0.797852L13.3252 0.833984ZM3.92773 0.820312C3.91056 0.824184 3.89387 0.829849 3.87695 0.833984C3.94495 0.817387 4.01476 0.801527 4.08691 0.789062L3.92773 0.820312ZM14.5029 0.744141C14.4675 0.742005 14.4318 0.737684 14.3955 0.736328L14.2031 0.733398C14.3065 0.733403 14.4063 0.738307 14.5029 0.744141Z" fill="white"/>
</svg>
