<svg width="1512" height="361" viewBox="0 0 1512 361" fill="none" xmlns="http://www.w3.org/2000/svg">
<path d="M0 53.3618C83.9977 51.4538 168.001 49.5501 251.998 36.953C336.001 24.356 419.999 1.0698 504.002 0.0364843C587.999 -0.996836 672.002 20.227 756 24.6475C839.998 29.0681 924.001 16.6854 1008 16.4453C1092 16.2009 1176 28.0948 1260 41.0563C1344 54.0178 1428 68.0427 1512 82.0719V361C1428 361 1344 361 1260 361C1176 361 1092 361 1008 361C924.001 361 839.998 361 756 361C672.002 361 587.999 361 504.002 361C419.999 361 336.001 361 251.998 361C168.001 361 83.9977 361 0 361V53.3618Z" fill="#477EFF" fill-opacity="0.03"/>
<path d="M0 24.6472C83.9977 26.6624 168.001 28.6776 251.998 45.155C336.001 61.6324 419.999 92.572 504.002 106.683C587.999 120.793 672.002 118.079 756 110.786C839.998 103.493 924.001 91.6244 1008 69.7661C1092 47.9077 1176 16.0591 1260 20.544C1344 25.0331 1428 65.86 1512 106.683V361C1428 361 1344 361 1260 361C1176 361 1092 361 1008 361C924.001 361 839.998 361 756 361C672.002 361 587.999 361 504.002 361C419.999 361 336.001 361 251.998 361C168.001 361 83.9977 361 0 361V24.6472Z" fill="#477EFF" fill-opacity="0.03"/>
<path d="M0 123.091C83.9977 106.897 168.001 90.7026 251.998 77.9726C336.001 65.2426 419.999 55.9771 504.002 61.5639C587.999 67.1506 672.002 87.5898 756 106.683C839.998 125.78 924.001 143.535 1008 139.5C1092 135.461 1176 109.633 1260 98.4804C1344 87.3283 1428 90.8527 1512 94.3771V361C1428 361 1344 361 1260 361C1176 361 1092 361 1008 361C924.001 361 839.998 361 756 361C672.002 361 587.999 361 504.002 361C419.999 361 336.001 361 251.998 361C168.001 361 83.9977 361 0 361V123.091Z" fill="#477EFF" fill-opacity="0.03"/>
<path d="M0 151.806C83.9977 139.144 168.001 126.483 251.998 123.091C336.001 119.7 419.999 125.57 504.002 114.889C587.999 104.204 672.002 76.9692 756 86.1747C839.998 95.3803 924.001 141.031 1008 147.702C1092 154.374 1176 122.067 1260 106.683C1344 91.2985 1428 92.8377 1512 94.377V360.999C1428 360.999 1344 360.999 1260 360.999C1176 360.999 1092 360.999 1008 360.999C924.001 360.999 839.998 360.999 756 360.999C672.002 360.999 587.999 360.999 504.002 360.999C419.999 360.999 336.001 360.999 251.998 360.999C168.001 360.999 83.9977 360.999 0 360.999V151.806Z" fill="#477EFF" fill-opacity="0.03"/>
<path d="M0 139.501C83.9977 164.524 168.001 189.547 251.998 184.62C336.001 179.694 419.999 144.818 504.002 139.501C587.999 134.18 672.002 158.414 756 155.906C839.998 153.402 924.001 124.152 1008 127.196C1092 130.236 1176 165.566 1260 168.211C1344 170.861 1428 140.822 1512 110.787V361.001C1428 361.001 1344 361.001 1260 361.001C1176 361.001 1092 361.001 1008 361.001C924.001 361.001 839.998 361.001 756 361.001C672.002 361.001 587.999 361.001 504.002 361.001C419.999 361.001 336.001 361.001 251.998 361.001C168.001 361.001 83.9977 361.001 0 361.001V139.501Z" fill="#477EFF" fill-opacity="0.03"/>
<path d="M0 168.211C83.9977 144.62 168.001 121.025 251.998 118.988C336.001 116.952 419.999 136.473 504.002 155.905C587.999 175.341 672.002 194.691 756 188.723C839.998 182.75 924.001 151.459 1008 151.806C1092 152.149 1176 184.131 1260 188.723C1344 193.31 1428 170.504 1512 147.703V361C1428 361 1344 361 1260 361C1176 361 1092 361 1008 361C924.001 361 839.998 361 756 361C672.002 361 587.999 361 504.002 361C419.999 361 336.001 361 251.998 361C168.001 361 83.9977 361 0 361V168.211Z" fill="#477EFF" fill-opacity="0.03"/>
<path d="M0 176.417C83.9977 167.602 168.001 158.791 251.998 164.112C336.001 169.428 419.999 188.877 504.002 184.619C587.999 180.362 672.002 152.398 756 155.905C839.998 159.417 924.001 194.399 1008 213.334C1092 232.264 1176 235.149 1260 229.738C1344 224.331 1428 210.628 1512 196.925V361C1428 361 1344 361 1260 361C1176 361 1092 361 1008 361C924.001 361 839.998 361 756 361C672.002 361 587.999 361 504.002 361C419.999 361 336.001 361 251.998 361C168.001 361 83.9977 361 0 361V176.417Z" fill="#477EFF" fill-opacity="0.03"/>
<path d="M0 168.21C83.9977 175.765 168.001 183.315 251.998 201.028C336.001 218.74 419.999 246.609 504.002 237.944C587.999 229.275 672.002 184.07 756 180.515C839.998 176.961 924.001 215.057 1008 233.841C1092 252.625 1176 252.098 1260 250.25C1344 248.397 1428 245.22 1512 242.043V360.999C1428 360.999 1344 360.999 1260 360.999C1176 360.999 1092 360.999 1008 360.999C924.001 360.999 839.998 360.999 756 360.999C672.002 360.999 587.999 360.999 504.002 360.999C419.999 360.999 336.001 360.999 251.998 360.999C168.001 360.999 83.9977 360.999 0 360.999V168.21Z" fill="#477EFF" fill-opacity="0.03"/>
<path d="M0 287.168C83.9977 292.463 168.001 297.758 251.998 287.168C336.001 276.577 419.999 250.097 504.002 246.148C587.999 242.199 672.002 260.777 756 262.557C839.998 264.332 924.001 249.308 1008 237.946C1092 226.579 1176 218.874 1260 225.64C1344 232.402 1428 253.63 1512 274.862V361.001C1428 361.001 1344 361.001 1260 361.001C1176 361.001 1092 361.001 1008 361.001C924.001 361.001 839.998 361.001 756 361.001C672.002 361.001 587.999 361.001 504.002 361.001C419.999 361.001 336.001 361.001 251.998 361.001C168.001 361.001 83.9977 361.001 0 361.001V287.168Z" fill="#477EFF" fill-opacity="0.03"/>
<path d="M0 233.842C83.9977 237.319 168.001 240.796 251.998 250.251C336.001 259.701 419.999 275.127 504.002 283.064C587.999 291 672.002 291.45 756 295.369C839.998 299.288 924.001 306.68 1008 311.778C1092 316.876 1176 319.68 1260 307.675C1344 295.67 1428 268.859 1512 242.044V361C1428 361 1344 361 1260 361C1176 361 1092 361 1008 361C924.001 361 839.998 361 756 361C672.002 361 587.999 361 504.002 361C419.999 361 336.001 361 251.998 361C168.001 361 83.9977 361 0 361V233.842Z" fill="#477EFF" fill-opacity="0.03"/>
</svg>
